<svg width="1440" height="900" viewBox="0 0 1440 900" fill="none" xmlns="http://www.w3.org/2000/svg">
<g clip-path="url(#clip0_142:1112)">
<rect opacity="0.2" x="1295" y="265" width="6" height="12" fill="white"/>
<rect opacity="0.2" x="1304" y="268" width="6" height="12" transform="rotate(90 1304 268)" fill="white"/>
<rect opacity="0.3" x="1303" y="266" width="10" height="10" transform="rotate(90 1303 266)" fill="white"/>
<rect x="1295" y="268" width="6" height="6" fill="white"/>
</g>
<g clip-path="url(#clip1_142:1112)">
<rect opacity="0.2" x="750" y="357" width="6" height="12" fill="white"/>
<rect opacity="0.2" x="759" y="360" width="6" height="12" transform="rotate(90 759 360)" fill="white"/>
<rect opacity="0.3" x="758" y="358" width="10" height="10" transform="rotate(90 758 358)" fill="white"/>
<rect x="750" y="360" width="6" height="6" fill="white"/>
</g>
<g clip-path="url(#clip2_142:1112)">
<rect opacity="0.2" x="407" y="330" width="6" height="12" fill="white"/>
<rect opacity="0.2" x="416" y="333" width="6" height="12" transform="rotate(90 416 333)" fill="white"/>
<rect opacity="0.3" x="415" y="331" width="10" height="10" transform="rotate(90 415 331)" fill="white"/>
<rect x="407" y="333" width="6" height="6" fill="white"/>
</g>
<g clip-path="url(#clip3_142:1112)">
<rect opacity="0.2" x="353" y="235" width="6" height="12" fill="white"/>
<rect opacity="0.2" x="362" y="238" width="6" height="12" transform="rotate(90 362 238)" fill="white"/>
<rect opacity="0.3" x="361" y="236" width="10" height="10" transform="rotate(90 361 236)" fill="white"/>
<rect x="353" y="238" width="6" height="6" fill="white"/>
</g>
<g clip-path="url(#clip4_142:1112)">
<rect opacity="0.2" x="959" y="302" width="6" height="12" fill="white"/>
<rect opacity="0.2" x="968" y="305" width="6" height="12" transform="rotate(90 968 305)" fill="white"/>
<rect opacity="0.3" x="967" y="303" width="10" height="10" transform="rotate(90 967 303)" fill="white"/>
<rect x="959" y="305" width="6" height="6" fill="white"/>
</g>
<g clip-path="url(#clip5_142:1112)">
<rect opacity="0.2" x="402" y="682" width="6" height="12" fill="white"/>
<rect opacity="0.2" x="411" y="685" width="6" height="12" transform="rotate(90 411 685)" fill="white"/>
<rect opacity="0.3" x="410" y="683" width="10" height="10" transform="rotate(90 410 683)" fill="white"/>
<rect x="402" y="685" width="6" height="6" fill="white"/>
</g>
<g clip-path="url(#clip6_142:1112)">
<rect opacity="0.2" x="341" y="187" width="6" height="12" fill="white"/>
<rect opacity="0.2" x="350" y="190" width="6" height="12" transform="rotate(90 350 190)" fill="white"/>
<rect opacity="0.3" x="349" y="188" width="10" height="10" transform="rotate(90 349 188)" fill="white"/>
<rect x="341" y="190" width="6" height="6" fill="white"/>
</g>
<rect opacity="0.2" x="1105" y="699" width="6" height="8" transform="rotate(90 1105 699)" fill="white"/>
<rect opacity="0.2" x="1109" y="699" width="6" height="11" transform="rotate(90 1109 699)" fill="white"/>
<rect opacity="0.3" x="1104" y="698" width="8" height="6" transform="rotate(90 1104 698)" fill="white"/>
<rect x="1098" y="699" width="6" height="6" fill="white"/>
<rect opacity="0.2" x="171" y="562" width="6" height="8" transform="rotate(90 171 562)" fill="white"/>
<rect opacity="0.2" x="175" y="562" width="6" height="11" transform="rotate(90 175 562)" fill="white"/>
<rect opacity="0.3" x="170" y="561" width="8" height="6" transform="rotate(90 170 561)" fill="white"/>
<rect x="164" y="562" width="6" height="6" fill="white"/>
<rect opacity="0.2" x="87" y="355" width="6" height="8" transform="rotate(90 87 355)" fill="white"/>
<rect opacity="0.2" x="91" y="355" width="6" height="11" transform="rotate(90 91 355)" fill="white"/>
<rect opacity="0.3" x="86" y="354" width="8" height="6" transform="rotate(90 86 354)" fill="white"/>
<rect x="80" y="355" width="6" height="6" fill="white"/>
<rect opacity="0.2" x="200" y="791" width="6" height="8" transform="rotate(90 200 791)" fill="white"/>
<rect opacity="0.2" x="204" y="791" width="6" height="11" transform="rotate(90 204 791)" fill="white"/>
<rect opacity="0.3" x="199" y="790" width="8" height="6" transform="rotate(90 199 790)" fill="white"/>
<rect x="193" y="791" width="6" height="6" fill="white"/>
<rect opacity="0.2" x="759" y="587" width="6" height="8" transform="rotate(90 759 587)" fill="white"/>
<rect opacity="0.2" x="763" y="587" width="6" height="11" transform="rotate(90 763 587)" fill="white"/>
<rect opacity="0.3" x="758" y="586" width="8" height="6" transform="rotate(90 758 586)" fill="white"/>
<rect x="752" y="587" width="6" height="6" fill="white"/>
<rect opacity="0.2" x="1082" y="168" width="6" height="8" transform="rotate(90 1082 168)" fill="white"/>
<rect opacity="0.2" x="1086" y="168" width="6" height="11" transform="rotate(90 1086 168)" fill="white"/>
<rect opacity="0.3" x="1081" y="167" width="8" height="6" transform="rotate(90 1081 167)" fill="white"/>
<rect x="1075" y="168" width="6" height="6" fill="white"/>
<rect opacity="0.2" x="537" y="260" width="6" height="8" transform="rotate(90 537 260)" fill="white"/>
<rect opacity="0.2" x="541" y="260" width="6" height="11" transform="rotate(90 541 260)" fill="white"/>
<rect opacity="0.3" x="536" y="259" width="8" height="6" transform="rotate(90 536 259)" fill="white"/>
<rect x="530" y="260" width="6" height="6" fill="white"/>
<rect opacity="0.2" x="829" y="333" width="6" height="8" transform="rotate(90 829 333)" fill="white"/>
<rect opacity="0.2" x="829" y="333" width="6" height="11" transform="rotate(90 829 333)" fill="white"/>
<rect opacity="0.3" x="828" y="332" width="8" height="6" transform="rotate(90 828 332)" fill="white"/>
<rect x="822" y="333" width="6" height="6" fill="white"/>
<g clip-path="url(#clip7_142:1112)">
<rect opacity="0.2" x="206" y="732" width="6" height="8" transform="rotate(90 206 732)" fill="white"/>
<rect opacity="0.2" x="205" y="732" width="11" height="6" transform="rotate(90 205 732)" fill="white"/>
<rect opacity="0.3" x="205" y="731" width="8" height="6" transform="rotate(90 205 731)" fill="white"/>
<rect x="199" y="732" width="6" height="6" fill="white"/>
</g>
<g clip-path="url(#clip8_142:1112)">
<rect opacity="0.2" x="884" y="491" width="6" height="8" transform="rotate(90 884 491)" fill="white"/>
<rect opacity="0.2" x="883" y="491" width="11" height="6" transform="rotate(90 883 491)" fill="white"/>
<rect opacity="0.3" x="883" y="490" width="8" height="6" transform="rotate(90 883 490)" fill="white"/>
<rect x="877" y="491" width="6" height="6" fill="white"/>
</g>
<g clip-path="url(#clip9_142:1112)">
<rect opacity="0.2" x="567" y="221" width="6" height="8" transform="rotate(90 567 221)" fill="white"/>
<rect opacity="0.2" x="566" y="221" width="11" height="6" transform="rotate(90 566 221)" fill="white"/>
<rect opacity="0.3" x="566" y="220" width="8" height="6" transform="rotate(90 566 220)" fill="white"/>
<rect x="560" y="221" width="6" height="6" fill="white"/>
</g>
<g clip-path="url(#clip10_142:1112)">
<rect opacity="0.2" x="1337" y="512" width="6" height="8" transform="rotate(90 1337 512)" fill="white"/>
<rect opacity="0.2" x="1336" y="512" width="11" height="6" transform="rotate(90 1336 512)" fill="white"/>
<rect opacity="0.3" x="1336" y="511" width="8" height="6" transform="rotate(90 1336 511)" fill="white"/>
<rect x="1330" y="512" width="6" height="6" fill="white"/>
</g>
<g clip-path="url(#clip11_142:1112)">
<rect opacity="0.2" x="792" y="604" width="6" height="8" transform="rotate(90 792 604)" fill="white"/>
<rect opacity="0.2" x="791" y="604" width="11" height="6" transform="rotate(90 791 604)" fill="white"/>
<rect opacity="0.3" x="791" y="603" width="8" height="6" transform="rotate(90 791 603)" fill="white"/>
<rect x="785" y="604" width="6" height="6" fill="white"/>
</g>
<g clip-path="url(#clip12_142:1112)">
<rect opacity="0.2" x="884" y="266" width="6" height="8" transform="rotate(90 884 266)" fill="white"/>
<rect opacity="0.2" x="883" y="266" width="11" height="6" transform="rotate(90 883 266)" fill="white"/>
<rect opacity="0.3" x="883" y="265" width="8" height="6" transform="rotate(90 883 265)" fill="white"/>
<rect x="877" y="266" width="6" height="6" fill="white"/>
</g>
<g clip-path="url(#clip13_142:1112)">
<rect opacity="0.2" x="333" y="502" width="6" height="8" transform="rotate(90 333 502)" fill="white"/>
<rect opacity="0.2" x="332" y="502" width="11" height="6" transform="rotate(90 332 502)" fill="white"/>
<rect opacity="0.3" x="332" y="501" width="8" height="6" transform="rotate(90 332 501)" fill="white"/>
<rect x="326" y="502" width="6" height="6" fill="white"/>
</g>
<g clip-path="url(#clip14_142:1112)">
<rect opacity="0.2" x="630" y="380" width="6" height="8" transform="rotate(90 630 380)" fill="white"/>
<rect opacity="0.2" x="629" y="380" width="11" height="6" transform="rotate(90 629 380)" fill="white"/>
<rect opacity="0.3" x="629" y="379" width="8" height="6" transform="rotate(90 629 379)" fill="white"/>
<rect x="623" y="380" width="6" height="6" fill="white"/>
</g>
<g clip-path="url(#clip15_142:1112)">
<rect opacity="0.2" x="269" y="440" width="6" height="8" transform="rotate(90 269 440)" fill="white"/>
<rect opacity="0.2" x="268" y="440" width="11" height="6" transform="rotate(90 268 440)" fill="white"/>
<rect opacity="0.3" x="268" y="439" width="8" height="6" transform="rotate(90 268 439)" fill="white"/>
<rect x="262" y="440" width="6" height="6" fill="white"/>
</g>
<g clip-path="url(#clip16_142:1112)">
<rect opacity="0.2" x="848" y="63" width="6" height="8" transform="rotate(90 848 63)" fill="white"/>
<rect opacity="0.2" x="847" y="63" width="11" height="6" transform="rotate(90 847 63)" fill="white"/>
<rect opacity="0.3" x="847" y="62" width="8" height="6" transform="rotate(90 847 62)" fill="white"/>
<rect x="841" y="63" width="6" height="6" fill="white"/>
</g>
<g clip-path="url(#clip17_142:1112)">
<rect opacity="0.2" x="582" y="373" width="6" height="8" transform="rotate(90 582 373)" fill="white"/>
<rect opacity="0.2" x="581" y="373" width="11" height="6" transform="rotate(90 581 373)" fill="white"/>
<rect opacity="0.3" x="581" y="372" width="8" height="6" transform="rotate(90 581 372)" fill="white"/>
<rect x="575" y="373" width="6" height="6" fill="white"/>
</g>
<g clip-path="url(#clip18_142:1112)">
<rect opacity="0.2" x="995" y="440" width="6" height="8" transform="rotate(90 995 440)" fill="white"/>
<rect opacity="0.2" x="994" y="440" width="11" height="6" transform="rotate(90 994 440)" fill="white"/>
<rect opacity="0.3" x="994" y="439" width="8" height="6" transform="rotate(90 994 439)" fill="white"/>
<rect x="988" y="440" width="6" height="6" fill="white"/>
</g>
<g clip-path="url(#clip19_142:1112)">
<rect opacity="0.2" x="444" y="676" width="6" height="8" transform="rotate(90 444 676)" fill="white"/>
<rect opacity="0.2" x="443" y="676" width="11" height="6" transform="rotate(90 443 676)" fill="white"/>
<rect opacity="0.3" x="443" y="675" width="8" height="6" transform="rotate(90 443 675)" fill="white"/>
<rect x="437" y="676" width="6" height="6" fill="white"/>
</g>
<g clip-path="url(#clip20_142:1112)">
<rect opacity="0.2" x="527" y="832" width="6" height="8" transform="rotate(90 527 832)" fill="white"/>
<rect opacity="0.2" x="526" y="832" width="11" height="6" transform="rotate(90 526 832)" fill="white"/>
<rect opacity="0.3" x="526" y="831" width="8" height="6" transform="rotate(90 526 831)" fill="white"/>
<rect x="520" y="832" width="6" height="6" fill="white"/>
</g>
<rect opacity="0.2" x="1182" y="140" width="6" height="8" transform="rotate(90 1182 140)" fill="white"/>
<rect opacity="0.2" x="1181" y="136" width="11" height="6" transform="rotate(90 1181 136)" fill="white"/>
<rect opacity="0.3" x="1181" y="139" width="8" height="6" transform="rotate(90 1181 139)" fill="white"/>
<rect x="1175" y="140" width="6" height="6" fill="white"/>
<rect opacity="0.2" x="637" y="232" width="6" height="8" transform="rotate(90 637 232)" fill="white"/>
<rect opacity="0.2" x="636" y="228" width="11" height="6" transform="rotate(90 636 228)" fill="white"/>
<rect opacity="0.3" x="636" y="231" width="8" height="6" transform="rotate(90 636 231)" fill="white"/>
<rect x="630" y="232" width="6" height="6" fill="white"/>
<rect opacity="0.2" x="1170" y="159" width="6" height="8" transform="rotate(90 1170 159)" fill="white"/>
<rect opacity="0.2" x="1169" y="155" width="11" height="6" transform="rotate(90 1169 155)" fill="white"/>
<rect opacity="0.3" x="1169" y="158" width="8" height="6" transform="rotate(90 1169 158)" fill="white"/>
<rect x="1163" y="159" width="6" height="6" fill="white"/>
<rect opacity="0.2" x="625" y="251" width="6" height="8" transform="rotate(90 625 251)" fill="white"/>
<rect opacity="0.2" x="624" y="247" width="11" height="6" transform="rotate(90 624 247)" fill="white"/>
<rect opacity="0.3" x="624" y="250" width="8" height="6" transform="rotate(90 624 250)" fill="white"/>
<rect x="618" y="251" width="6" height="6" fill="white"/>
<rect opacity="0.2" x="138" y="153" width="6" height="8" transform="rotate(90 138 153)" fill="white"/>
<rect opacity="0.2" x="137" y="149" width="11" height="6" transform="rotate(90 137 149)" fill="white"/>
<rect opacity="0.3" x="137" y="152" width="8" height="6" transform="rotate(90 137 152)" fill="white"/>
<rect x="131" y="153" width="6" height="6" fill="white"/>
<rect opacity="0.2" x="372" y="295" width="6" height="8" transform="rotate(90 372 295)" fill="white"/>
<rect opacity="0.2" x="371" y="291" width="11" height="6" transform="rotate(90 371 291)" fill="white"/>
<rect opacity="0.3" x="371" y="294" width="8" height="6" transform="rotate(90 371 294)" fill="white"/>
<rect x="365" y="295" width="6" height="6" fill="white"/>
<defs>
<clipPath id="clip0_142:1112">
<rect width="12" height="12" fill="white" transform="translate(1292 265)"/>
</clipPath>
<clipPath id="clip1_142:1112">
<rect width="12" height="12" fill="white" transform="translate(747 357)"/>
</clipPath>
<clipPath id="clip2_142:1112">
<rect width="12" height="12" fill="white" transform="translate(404 330)"/>
</clipPath>
<clipPath id="clip3_142:1112">
<rect width="12" height="12" fill="white" transform="translate(350 235)"/>
</clipPath>
<clipPath id="clip4_142:1112">
<rect width="12" height="12" fill="white" transform="translate(956 302)"/>
</clipPath>
<clipPath id="clip5_142:1112">
<rect width="12" height="12" fill="white" transform="translate(399 682)"/>
</clipPath>
<clipPath id="clip6_142:1112">
<rect width="12" height="12" fill="white" transform="translate(338 187)"/>
</clipPath>
<clipPath id="clip7_142:1112">
<rect width="12" height="12" fill="white" transform="translate(196 731)"/>
</clipPath>
<clipPath id="clip8_142:1112">
<rect width="12" height="12" fill="white" transform="translate(874 490)"/>
</clipPath>
<clipPath id="clip9_142:1112">
<rect width="12" height="12" fill="white" transform="translate(557 220)"/>
</clipPath>
<clipPath id="clip10_142:1112">
<rect width="12" height="12" fill="white" transform="translate(1327 511)"/>
</clipPath>
<clipPath id="clip11_142:1112">
<rect width="12" height="12" fill="white" transform="translate(782 603)"/>
</clipPath>
<clipPath id="clip12_142:1112">
<rect width="12" height="12" fill="white" transform="translate(874 265)"/>
</clipPath>
<clipPath id="clip13_142:1112">
<rect width="12" height="12" fill="white" transform="translate(323 501)"/>
</clipPath>
<clipPath id="clip14_142:1112">
<rect width="12" height="12" fill="white" transform="translate(620 379)"/>
</clipPath>
<clipPath id="clip15_142:1112">
<rect width="12" height="12" fill="white" transform="translate(259 439)"/>
</clipPath>
<clipPath id="clip16_142:1112">
<rect width="12" height="12" fill="white" transform="translate(838 62)"/>
</clipPath>
<clipPath id="clip17_142:1112">
<rect width="12" height="12" fill="white" transform="translate(572 372)"/>
</clipPath>
<clipPath id="clip18_142:1112">
<rect width="12" height="12" fill="white" transform="translate(985 439)"/>
</clipPath>
<clipPath id="clip19_142:1112">
<rect width="12" height="12" fill="white" transform="translate(434 675)"/>
</clipPath>
<clipPath id="clip20_142:1112">
<rect width="12" height="12" fill="white" transform="translate(517 831)"/>
</clipPath>
</defs>
</svg>
